# 3ds Max Wavefront OBJ Exporter v0.97b - (c)2007 guruware
# File Created: 06.12.2016 20:08:41

mtllib lampshade.mtl

#
# object Cylinder001
#

v  2.1118 48.2888 0.3418
v  1.9844 48.2888 1.0503
v  1.9844 47.5920 1.0503
v  2.1118 47.5920 0.3418
v  1.6177 48.2888 1.6733
v  1.6177 47.5920 1.6733
v  1.0559 48.2888 2.1357
v  1.0559 47.5920 2.1357
v  0.3667 48.2888 2.3818
v  0.3667 47.5920 2.3818
v  -0.3667 48.2888 2.3818
v  -0.3667 47.5920 2.3818
v  -1.0559 48.2888 2.1357
v  -1.0559 47.5920 2.1357
v  -1.6177 48.2888 1.6733
v  -1.6177 47.5920 1.6733
v  -1.9844 48.2888 1.0503
v  -1.9844 47.5920 1.0503
v  -2.1118 48.2888 0.3418
v  -2.1118 47.5920 0.3418
v  -1.9844 48.2888 -0.3666
v  -1.9844 47.5920 -0.3666
v  -1.6177 48.2888 -0.9896
v  -1.6177 47.5920 -0.9896
v  -1.0559 48.2888 -1.4520
v  -1.0559 47.5920 -1.4520
v  -0.3667 48.2888 -1.6981
v  -0.3667 47.5920 -1.6981
v  0.3667 48.2888 -1.6981
v  0.3667 47.5920 -1.6981
v  1.0559 48.2888 -1.4520
v  1.0559 47.5920 -1.4520
v  1.6177 48.2888 -0.9896
v  1.6177 47.5920 -0.9896
v  1.9844 48.2888 -0.3666
v  1.9844 47.5920 -0.3666
v  1.9844 46.8952 1.0503
v  2.1118 46.8952 0.3418
v  1.6177 46.8952 1.6733
v  1.0559 46.8952 2.1357
v  0.3667 46.8952 2.3818
v  -0.3667 46.8952 2.3818
v  -1.0559 46.8952 2.1357
v  -1.6177 46.8952 1.6733
v  -1.9844 46.8952 1.0503
v  -2.1118 46.8952 0.3418
v  -1.9844 46.8952 -0.3666
v  -1.6177 46.8952 -0.9896
v  -1.0559 46.8952 -1.4520
v  -0.3667 46.8952 -1.6981
v  0.3667 46.8952 -1.6981
v  1.0559 46.8952 -1.4520
v  1.6177 46.8952 -0.9896
v  1.9844 46.8952 -0.3666
v  1.9844 46.1985 1.0503
v  2.1118 46.1985 0.3418
v  1.6177 46.1985 1.6733
v  1.0559 46.1985 2.1357
v  0.3667 46.1985 2.3818
v  -0.3667 46.1985 2.3818
v  -1.0559 46.1985 2.1357
v  -1.6177 46.1985 1.6733
v  -1.9844 46.1985 1.0503
v  -2.1118 46.1985 0.3418
v  -1.9844 46.1985 -0.3666
v  -1.6177 46.1985 -0.9896
v  -1.0559 46.1985 -1.4520
v  -0.3667 46.1985 -1.6981
v  0.3667 46.1985 -1.6981
v  1.0559 46.1985 -1.4520
v  1.6177 46.1985 -0.9896
v  1.9844 46.1985 -0.3666
v  1.8454 47.5920 1.0006
v  1.8454 48.2888 1.0006
v  1.9638 48.2888 0.3418
v  1.9638 47.5920 0.3418
v  1.5043 47.5920 1.5800
v  1.5043 48.2888 1.5800
v  0.9819 47.5920 2.0100
v  0.9819 48.2888 2.0100
v  0.3410 47.5920 2.2388
v  0.3410 48.2888 2.2388
v  -0.3410 47.5920 2.2388
v  -0.3410 48.2888 2.2388
v  -0.9819 47.5920 2.0100
v  -0.9819 48.2888 2.0100
v  -1.5043 47.5920 1.5800
v  -1.5043 48.2888 1.5800
v  -1.8454 47.5920 1.0006
v  -1.8454 48.2888 1.0006
v  -1.9638 47.5920 0.3418
v  -1.9638 48.2888 0.3418
v  -1.8454 47.5920 -0.3170
v  -1.8454 48.2888 -0.3170
v  -1.5043 47.5920 -0.8963
v  -1.5043 48.2888 -0.8963
v  -0.9819 47.5920 -1.3263
v  -0.9819 48.2888 -1.3263
v  -0.3410 47.5920 -1.5551
v  -0.3410 48.2888 -1.5551
v  0.3410 47.5920 -1.5551
v  0.3410 48.2888 -1.5551
v  0.9819 47.5920 -1.3263
v  0.9819 48.2888 -1.3263
v  1.5043 47.5920 -0.8963
v  1.5043 48.2888 -0.8963
v  1.8454 47.5920 -0.3170
v  1.8454 48.2888 -0.3170
v  1.8454 46.8952 1.0006
v  1.9638 46.8952 0.3418
v  1.5043 46.8952 1.5800
v  0.9819 46.8952 2.0100
v  0.3410 46.8952 2.2388
v  -0.3410 46.8952 2.2388
v  -0.9819 46.8952 2.0100
v  -1.5043 46.8952 1.5800
v  -1.8454 46.8952 1.0006
v  -1.9638 46.8952 0.3418
v  -1.8454 46.8952 -0.3170
v  -1.5043 46.8952 -0.8963
v  -0.9819 46.8952 -1.3263
v  -0.3410 46.8952 -1.5551
v  0.3410 46.8952 -1.5551
v  0.9819 46.8952 -1.3263
v  1.5043 46.8952 -0.8963
v  1.8454 46.8952 -0.3170
v  1.8454 46.1985 1.0006
v  1.9638 46.1985 0.3418
v  1.5043 46.1985 1.5800
v  0.9819 46.1985 2.0100
v  0.3410 46.1985 2.2388
v  -0.3410 46.1985 2.2388
v  -0.9819 46.1985 2.0100
v  -1.5043 46.1985 1.5800
v  -1.8454 46.1985 1.0006
v  -1.9638 46.1985 0.3418
v  -1.8454 46.1985 -0.3170
v  -1.5043 46.1985 -0.8963
v  -0.9819 46.1985 -1.3263
v  -0.3410 46.1985 -1.5551
v  0.3410 46.1985 -1.5551
v  0.9819 46.1985 -1.3263
v  1.5043 46.1985 -0.8963
v  1.8454 46.1985 -0.3170
# 144 vertices

vn 1.0000 -0.0000 -0.0000
vn 0.9397 0.0000 0.3420
vn 1.0000 0.0000 -0.0000
vn 0.7660 0.0000 0.6428
vn 0.5000 0.0000 0.8660
vn 0.1736 0.0000 0.9848
vn -0.1736 0.0000 0.9848
vn -0.5000 0.0000 0.8660
vn -0.7660 0.0000 0.6428
vn -0.9397 0.0000 0.3420
vn -1.0000 0.0000 -0.0000
vn -1.0000 -0.0000 -0.0000
vn -0.9397 0.0000 -0.3420
vn -0.9397 -0.0000 -0.3420
vn -0.7660 0.0000 -0.6428
vn -0.5000 0.0000 -0.8660
vn -0.1736 0.0000 -0.9848
vn 0.1736 0.0000 -0.9848
vn 0.5000 0.0000 -0.8660
vn 0.7660 0.0000 -0.6428
vn 0.9397 -0.0000 -0.3420
vn 0.9397 0.0000 -0.3420
vn -1.0000 0.0000 0.0000
vn 0.0000 1.0000 -0.0000
vn 0.0000 -1.0000 -0.0000
# 25 vertex normals

vt 0.7500 0.2000 1.0000
vt 0.6944 0.2000 1.0000
vt 0.6944 0.4000 1.0000
vt 0.7500 0.4000 1.0000
vt 0.6389 0.2000 1.0000
vt 0.6389 0.4000 1.0000
vt 0.5833 0.2000 1.0000
vt 0.5833 0.4000 1.0000
vt 0.5278 0.2000 1.0000
vt 0.5278 0.4000 1.0000
vt 0.4722 0.2000 1.0000
vt 0.4722 0.4000 1.0000
vt 0.4167 0.2000 1.0000
vt 0.4167 0.4000 1.0000
vt 0.3611 0.2000 1.0000
vt 0.3611 0.4000 1.0000
vt 0.3056 0.2000 1.0000
vt 0.3056 0.4000 1.0000
vt 0.2500 0.2000 1.0000
vt 0.2500 0.4000 1.0000
vt 0.1944 0.2000 1.0000
vt 0.1944 0.4000 1.0000
vt 0.1389 0.2000 1.0000
vt 0.1389 0.4000 1.0000
vt 0.0833 0.2000 1.0000
vt 0.0833 0.4000 1.0000
vt 0.0278 0.2000 1.0000
vt 0.0278 0.4000 1.0000
vt -0.0278 0.2000 1.0000
vt -0.0278 0.4000 1.0000
vt 0.9722 0.2000 1.0000
vt 0.9167 0.2000 1.0000
vt 0.9167 0.4000 1.0000
vt 0.9722 0.4000 1.0000
vt 0.8611 0.2000 1.0000
vt 0.8611 0.4000 1.0000
vt 0.8056 0.2000 1.0000
vt 0.8056 0.4000 1.0000
vt 0.6944 0.6000 1.0000
vt 0.7500 0.6000 1.0000
vt 0.6389 0.6000 1.0000
vt 0.5833 0.6000 1.0000
vt 0.5278 0.6000 1.0000
vt 0.4722 0.6000 1.0000
vt 0.4167 0.6000 1.0000
vt 0.3611 0.6000 1.0000
vt 0.3056 0.6000 1.0000
vt 0.2500 0.6000 1.0000
vt 0.1944 0.6000 1.0000
vt 0.1389 0.6000 1.0000
vt 0.0833 0.6000 1.0000
vt 0.0278 0.6000 1.0000
vt -0.0278 0.6000 1.0000
vt 0.9167 0.6000 1.0000
vt 0.9722 0.6000 1.0000
vt 0.8611 0.6000 1.0000
vt 0.8056 0.6000 1.0000
vt 0.6944 0.8000 1.0000
vt 0.7500 0.8000 1.0000
vt 0.6389 0.8000 1.0000
vt 0.5833 0.8000 1.0000
vt 0.5278 0.8000 1.0000
vt 0.4722 0.8000 1.0000
vt 0.4167 0.8000 1.0000
vt 0.3611 0.8000 1.0000
vt 0.3056 0.8000 1.0000
vt 0.2500 0.8000 1.0000
vt 0.1944 0.8000 1.0000
vt 0.1389 0.8000 1.0000
vt 0.0833 0.8000 1.0000
vt 0.0278 0.8000 1.0000
vt -0.0278 0.8000 1.0000
vt 0.9167 0.8000 1.0000
vt 0.9722 0.8000 1.0000
vt 0.8611 0.8000 1.0000
vt 0.8056 0.8000 1.0000
# 76 texture coords

g Cylinder001
usemtl wire_190102054
s 8
f 1/1/1 2/2/2 3/3/2 4/4/3 
f 2/2/2 5/5/4 6/6/4 3/3/2 
f 5/5/4 7/7/5 8/8/5 6/6/4 
f 7/7/5 9/9/6 10/10/6 8/8/5 
f 9/9/6 11/11/7 12/12/7 10/10/6 
f 11/11/7 13/13/8 14/14/8 12/12/7 
f 13/13/8 15/15/9 16/16/9 14/14/8 
f 15/15/9 17/17/10 18/18/10 16/16/9 
f 17/17/10 19/19/11 20/20/12 18/18/10 
f 19/19/11 21/21/13 22/22/14 20/20/12 
f 21/21/13 23/23/15 24/24/15 22/22/14 
f 23/23/15 25/25/16 26/26/16 24/24/15 
f 25/25/16 27/27/17 28/28/17 26/26/16 
f 27/27/17 29/29/18 30/30/18 28/28/17 
f 29/31/18 31/32/19 32/33/19 30/34/18 
f 31/32/19 33/35/20 34/36/20 32/33/19 
f 33/35/20 35/37/21 36/38/22 34/36/20 
f 35/37/21 1/1/1 4/4/3 36/38/22 
f 4/4/3 3/3/2 37/39/2 38/40/1 
f 3/3/2 6/6/4 39/41/4 37/39/2 
f 6/6/4 8/8/5 40/42/5 39/41/4 
f 8/8/5 10/10/6 41/43/6 40/42/5 
f 10/10/6 12/12/7 42/44/7 41/43/6 
f 12/12/7 14/14/8 43/45/8 42/44/7 
f 14/14/8 16/16/9 44/46/9 43/45/8 
f 16/16/9 18/18/10 45/47/10 44/46/9 
f 18/18/10 20/20/12 46/48/11 45/47/10 
f 20/20/12 22/22/14 47/49/13 46/48/11 
f 22/22/14 24/24/15 48/50/15 47/49/13 
f 24/24/15 26/26/16 49/51/16 48/50/15 
f 26/26/16 28/28/17 50/52/17 49/51/16 
f 28/28/17 30/30/18 51/53/18 50/52/17 
f 30/34/18 32/33/19 52/54/19 51/55/18 
f 32/33/19 34/36/20 53/56/20 52/54/19 
f 34/36/20 36/38/22 54/57/21 53/56/20 
f 36/38/22 4/4/3 38/40/1 54/57/21 
f 38/40/1 37/39/2 55/58/2 56/59/3 
f 37/39/2 39/41/4 57/60/4 55/58/2 
f 39/41/4 40/42/5 58/61/5 57/60/4 
f 40/42/5 41/43/6 59/62/6 58/61/5 
f 41/43/6 42/44/7 60/63/7 59/62/6 
f 42/44/7 43/45/8 61/64/8 60/63/7 
f 43/45/8 44/46/9 62/65/9 61/64/8 
f 44/46/9 45/47/10 63/66/10 62/65/9 
f 45/47/10 46/48/11 64/67/12 63/66/10 
f 46/48/11 47/49/13 65/68/14 64/67/12 
f 47/49/13 48/50/15 66/69/15 65/68/14 
f 48/50/15 49/51/16 67/70/16 66/69/15 
f 49/51/16 50/52/17 68/71/17 67/70/16 
f 50/52/17 51/53/18 69/72/18 68/71/17 
f 51/55/18 52/54/19 70/73/19 69/74/18 
f 52/54/19 53/56/20 71/75/20 70/73/19 
f 53/56/20 54/57/21 72/76/22 71/75/20 
f 54/57/21 38/40/1 56/59/3 72/76/22 
f 73/3/13 74/2/13 75/1/23 76/4/23 
f 77/6/15 78/5/15 74/2/13 73/3/13 
f 79/8/16 80/7/16 78/5/15 77/6/15 
f 81/10/17 82/9/17 80/7/16 79/8/16 
f 83/12/18 84/11/18 82/9/17 81/10/17 
f 85/14/19 86/13/19 84/11/18 83/12/18 
f 87/16/20 88/15/20 86/13/19 85/14/19 
f 89/18/22 90/17/22 88/15/20 87/16/20 
f 91/20/3 92/19/3 90/17/22 89/18/22 
f 93/22/2 94/21/2 92/19/3 91/20/3 
f 95/24/4 96/23/4 94/21/2 93/22/2 
f 97/26/5 98/25/5 96/23/4 95/24/4 
f 99/28/6 100/27/6 98/25/5 97/26/5 
f 101/30/7 102/29/7 100/27/6 99/28/6 
f 103/33/8 104/32/8 102/31/7 101/34/7 
f 105/36/9 106/35/9 104/32/8 103/33/8 
f 107/38/10 108/37/10 106/35/9 105/36/9 
f 76/4/23 75/1/23 108/37/10 107/38/10 
f 109/39/13 73/3/13 76/4/23 110/40/23 
f 111/41/15 77/6/15 73/3/13 109/39/13 
f 112/42/16 79/8/16 77/6/15 111/41/15 
f 113/43/17 81/10/17 79/8/16 112/42/16 
f 114/44/18 83/12/18 81/10/17 113/43/17 
f 115/45/19 85/14/19 83/12/18 114/44/18 
f 116/46/20 87/16/20 85/14/19 115/45/19 
f 117/47/22 89/18/22 87/16/20 116/46/20 
f 118/48/3 91/20/3 89/18/22 117/47/22 
f 119/49/2 93/22/2 91/20/3 118/48/3 
f 120/50/4 95/24/4 93/22/2 119/49/2 
f 121/51/5 97/26/5 95/24/4 120/50/4 
f 122/52/6 99/28/6 97/26/5 121/51/5 
f 123/53/7 101/30/7 99/28/6 122/52/6 
f 124/54/8 103/33/8 101/34/7 123/55/7 
f 125/56/9 105/36/9 103/33/8 124/54/8 
f 126/57/10 107/38/10 105/36/9 125/56/9 
f 110/40/23 76/4/23 107/38/10 126/57/10 
f 127/58/13 109/39/13 110/40/23 128/59/23 
f 129/60/15 111/41/15 109/39/13 127/58/13 
f 130/61/16 112/42/16 111/41/15 129/60/15 
f 131/62/17 113/43/17 112/42/16 130/61/16 
f 132/63/18 114/44/18 113/43/17 131/62/17 
f 133/64/19 115/45/19 114/44/18 132/63/18 
f 134/65/20 116/46/20 115/45/19 133/64/19 
f 135/66/22 117/47/22 116/46/20 134/65/20 
f 136/67/3 118/48/3 117/47/22 135/66/22 
f 137/68/2 119/49/2 118/48/3 136/67/3 
f 138/69/4 120/50/4 119/49/2 137/68/2 
f 139/70/5 121/51/5 120/50/4 138/69/4 
f 140/71/6 122/52/6 121/51/5 139/70/5 
f 141/72/7 123/53/7 122/52/6 140/71/6 
f 142/73/8 124/54/8 123/55/7 141/74/7 
f 143/75/9 125/56/9 124/54/8 142/73/8 
f 144/76/10 126/57/10 125/56/9 143/75/9 
f 128/59/23 110/40/23 126/57/10 144/76/10 
s 1
f 2/2/24 1/1/24 75/1/24 74/2/24 
f 5/5/24 2/2/24 74/2/24 78/5/24 
f 7/7/24 5/5/24 78/5/24 80/7/24 
f 9/9/24 7/7/24 80/7/24 82/9/24 
f 11/11/24 9/9/24 82/9/24 84/11/24 
f 13/13/24 11/11/24 84/11/24 86/13/24 
f 15/15/24 13/13/24 86/13/24 88/15/24 
f 17/17/24 15/15/24 88/15/24 90/17/24 
f 19/19/24 17/17/24 90/17/24 92/19/24 
f 21/21/24 19/19/24 92/19/24 94/21/24 
f 23/23/24 21/21/24 94/21/24 96/23/24 
f 25/25/24 23/23/24 96/23/24 98/25/24 
f 27/27/24 25/25/24 98/25/24 100/27/24 
f 29/29/24 27/27/24 100/27/24 102/29/24 
f 31/32/24 29/31/24 102/31/24 104/32/24 
f 33/35/24 31/32/24 104/32/24 106/35/24 
f 35/37/24 33/35/24 106/35/24 108/37/24 
f 1/1/24 35/37/24 108/37/24 75/1/24 
f 56/59/25 55/58/25 127/58/25 128/59/25 
f 55/58/25 57/60/25 129/60/25 127/58/25 
f 57/60/25 58/61/25 130/61/25 129/60/25 
f 58/61/25 59/62/25 131/62/25 130/61/25 
f 59/62/25 60/63/25 132/63/25 131/62/25 
f 60/63/25 61/64/25 133/64/25 132/63/25 
f 61/64/25 62/65/25 134/65/25 133/64/25 
f 62/65/25 63/66/25 135/66/25 134/65/25 
f 63/66/25 64/67/25 136/67/25 135/66/25 
f 64/67/25 65/68/25 137/68/25 136/67/25 
f 65/68/25 66/69/25 138/69/25 137/68/25 
f 66/69/25 67/70/25 139/70/25 138/69/25 
f 67/70/25 68/71/25 140/71/25 139/70/25 
f 68/71/25 69/72/25 141/72/25 140/71/25 
f 69/74/25 70/73/25 142/73/25 141/74/25 
f 70/73/25 71/75/25 143/75/25 142/73/25 
f 71/75/25 72/76/25 144/76/25 143/75/25 
f 72/76/25 56/59/25 128/59/25 144/76/25 
# 144 polygons

